<svg width="350" height="94" viewBox="0 0 350 94" fill="none" xmlns="http://www.w3.org/2000/svg">
<path d="M76.6909 0.0587689C91.0288 -1.2854 89.1245 20.8935 86.5482 18.9892C79.9393 14.1726 63.9213 14.5086 47.4552 15.7408C48.7993 16.8609 49.5834 18.3171 49.3594 20.3334C47.7912 32.767 37.8219 78.0208 38.9421 89.8943C39.7262 97.5113 28.6367 90.9025 28.1887 82.6134C27.6286 71.748 34.7975 29.9666 35.3576 16.6369C23.036 17.757 11.6105 18.6532 5.22572 17.421C-2.50327 16.0768 0.0730596 4.31532 2.08932 6.5556C5.67378 10.3641 59.4407 1.51496 76.6909 0.0587689ZM49.4938 44.4165C49.3818 40.832 64.3917 41.9522 63.3836 49.4571C62.3755 57.5222 56.5507 76.6766 59.9112 84.1816C61.7034 88.3261 67.5281 84.4056 71.4487 70.6279C71.4487 70.6279 76.0412 71.636 75.5932 73.0922C72.7928 83.5095 68.9843 89.1102 63.7197 91.2385C57.5589 93.7028 50.0539 91.5746 47.1415 85.3017C42.4369 74.8844 49.7179 52.1455 49.4938 44.4165ZM54.0864 10.8122C52.9663 5.21143 70.6646 6.10755 69.4324 13.9486C68.7603 17.8691 66.9681 24.1419 64.9518 29.7426C61.5914 38.9278 53.5263 36.5755 53.8624 34.7832C55.3186 27.8383 55.0945 15.9648 54.0864 10.8122ZM83.4566 49.4571C83.0085 53.1536 82.2244 57.5222 81.3283 62.1148C83.7926 55.6179 87.9372 47.1048 91.2976 44.3045C93.2019 42.8483 95.4421 42.1762 97.7944 42.2882C105.635 42.6243 109.108 47.8889 107.652 55.3939C107.652 55.7299 107.54 56.066 107.54 56.402C109.78 51.3614 112.58 46.3207 115.157 44.3045C116.949 42.8483 119.189 42.1762 121.542 42.2882C129.383 42.6243 132.855 47.8889 131.511 55.3939C130.167 62.4508 126.134 77.6848 128.934 84.1816C130.839 88.3261 136.551 84.4056 140.584 70.6279C140.584 70.6279 145.065 71.636 144.728 73.0922C141.928 83.5095 138.12 89.1102 132.743 91.2385C126.694 93.7028 119.077 91.5746 116.277 85.3017C111.572 75.1084 117.061 62.2268 117.957 51.5854C118.181 49.9052 117.957 48.8971 116.949 49.9052C111.908 54.7218 107.316 67.7155 103.843 78.4689C103.171 81.8293 102.499 85.3017 101.603 88.7742C99.5867 96.7272 90.2895 88.7742 90.2895 84.6297C90.2895 72.6441 93.2018 63.0109 94.21 51.5854C94.322 49.9052 94.098 48.8971 93.0898 49.9052C85.9209 56.8501 79.4241 81.0452 76.1757 90.9025V91.3505C76.1757 93.3668 64.1901 93.5908 64.9742 82.1653C65.7583 70.8519 68.6707 55.3939 69.5668 44.4165C69.7908 40.832 84.4647 41.9522 83.4566 49.4571ZM165.698 48.673C168.162 59.6504 158.977 72.9802 149.343 71.1879C148.783 79.589 150.352 86.982 155.616 87.318C164.017 87.8781 169.282 77.9088 171.186 70.6279C171.186 70.5158 175.779 71.412 175.331 73.3162C172.979 81.9413 169.17 88.9982 160.769 91.9106C151.808 94.935 139.374 91.3505 136.014 82.0533C132.317 71.636 136.35 51.2494 145.199 43.9684C151.472 38.9278 163.569 39.8239 165.698 48.673ZM152.928 54.3858C151.584 57.8582 150.352 62.4508 149.792 66.8194C158.641 67.8275 164.129 48.561 159.761 47.1048C156.736 46.0967 153.936 51.9214 152.928 54.3858ZM207.725 20.1094C202.013 12.9404 184.314 12.4924 181.626 22.7977C178.49 35.2313 200.444 47.5529 205.597 62.8989C208.622 72.084 204.813 85.0777 195.74 90.4544C182.074 98.4074 159.559 88.5502 167.848 70.2918C170.985 63.3469 181.066 57.1861 179.274 61.3307C170.313 81.9413 193.5 85.5258 197.42 77.6848C205.149 62.3388 165.16 46.5448 165.16 24.3659C165.16 -2.85361 210.75 -5.87799 217.247 12.9404C223.855 32.3189 197.644 32.2069 206.829 26.3822C209.742 24.5899 209.294 22.1256 207.725 20.1094ZM219.957 9.13194C219.957 5.54747 235.303 6.66762 235.079 14.2846C234.855 27.5023 229.927 43.4084 225.782 67.9395C228.246 61.6667 232.615 48.225 237.432 44.3045C239.224 42.8483 241.576 42.2882 243.928 42.4002C251.657 42.7363 255.242 47.8889 253.786 55.5059C252.442 62.4508 248.409 77.7968 251.321 84.1816C253.114 88.4382 258.938 84.5177 262.859 70.6279C262.859 70.6279 267.452 71.636 267.003 73.0922C264.203 83.5095 260.395 89.2223 255.13 91.3505C248.969 93.8148 241.464 91.6866 238.552 85.4138C233.959 75.1084 239.336 62.2268 240.344 51.6974C240.456 50.0172 240.232 48.8971 239.224 49.9052C233.511 55.5059 224.998 81.3812 222.758 91.2385C221.974 94.3749 210.996 91.6866 210.996 81.7173C210.884 60.0985 220.181 25.5981 219.957 9.13194ZM287.973 48.673C290.437 59.6504 281.252 72.9802 271.618 71.1879C271.058 79.589 272.627 86.982 277.891 87.318C286.292 87.8781 291.557 77.9088 293.461 70.6279C293.461 70.5158 298.054 71.412 297.606 73.3162C295.253 81.9413 291.445 88.9982 283.044 91.9106C274.083 94.935 261.649 91.3505 258.289 82.0533C254.592 71.636 258.625 51.2494 267.474 43.9684C273.747 38.9278 285.844 39.8239 287.973 48.673ZM275.203 54.3858C273.859 57.8582 272.627 62.4508 272.066 66.8194C280.916 67.8275 286.404 48.561 282.036 47.1048C279.011 46.0967 276.211 51.9214 275.203 54.3858ZM318.575 48.673C321.039 59.6504 311.854 72.9802 302.221 71.1879C301.661 79.589 303.229 86.982 308.494 87.318C316.895 87.8781 322.159 77.9088 324.064 70.6279C324.064 70.5158 328.656 71.412 328.208 73.3162C325.856 81.9413 322.047 88.9982 313.646 91.9106C304.685 94.935 292.252 91.3505 288.891 82.0533C285.195 71.636 289.227 51.2494 298.076 43.9684C304.349 38.9278 316.447 39.8239 318.575 48.673ZM305.805 54.3858C304.461 57.8582 303.229 62.4508 302.669 66.8194C311.518 67.8275 317.007 48.561 312.638 47.1048C309.614 46.0967 306.813 51.9214 305.805 54.3858ZM325.766 19.4373C325.878 15.8528 341.672 17.645 340.888 25.15C340.44 29.8546 338.76 36.9115 337.08 44.4165C343.128 43.8564 347.945 43.2963 348.729 42.9603C351.081 41.8402 350.073 49.7932 346.489 50.0172C345.817 50.0172 341.224 50.2412 335.623 50.4653C332.599 63.907 329.911 77.9088 332.711 84.1816C334.503 88.3261 340.328 84.4056 344.249 70.6279C344.249 70.5158 348.841 71.524 348.393 73.2042C345.593 83.5095 341.784 89.1102 336.52 91.2385C330.359 93.7028 322.854 91.5746 319.941 85.4138C316.805 78.4689 318.597 64.8031 320.95 50.9133C316.581 51.0253 313.221 51.1373 312.436 51.0253C308.068 50.4653 308.964 46.6568 309.748 46.6568C310.868 46.6568 315.797 46.2087 321.846 45.7607C323.638 35.6794 325.542 25.9341 325.766 19.4373Z" fill="black"/>
</svg>
